<svg width="16" height="16" viewBox="0 0 16 16" fill="none" xmlns="http://www.w3.org/2000/svg">
<path d="M14.1713 7.30792C14.4873 7.72125 14.4873 8.27925 14.1713 8.69192C13.176 9.99125 10.788 12.6666 7.99997 12.6666C5.21197 12.6666 2.82397 9.99125 1.82863 8.69192C1.67489 8.49401 1.59143 8.25053 1.59143 7.99992C1.59143 7.74931 1.67489 7.50583 1.82863 7.30792C2.82397 6.00859 5.21197 3.33325 7.99997 3.33325C10.788 3.33325 13.176 6.00859 14.1713 7.30792V7.30792Z" stroke="black" stroke-opacity="0.4" stroke-linecap="round" stroke-linejoin="round"/>
<path d="M8 10C8 10 10 9.10457 10 8C10 6.89543 9.10457 6 8 6C6.89543 6 6 6.89543 6 8C6 9.10457 8 10 8 10Z" stroke="black" stroke-opacity="0.4" stroke-linecap="round" stroke-linejoin="round"/>
</svg>
