<svg width="26" height="20" viewBox="0 0 26 20" fill="none" xmlns="http://www.w3.org/2000/svg">
<g clip-path="url(#clip0_1_5926)">
<path d="M26 10L10.7656 17.8125L10.7656 13.6035L-1.83981e-07 13.6035L-4.9901e-07 6.39648L10.7656 6.39648L10.7656 2.1875L26 10Z" fill="#FF7A2E"/>
<path d="M13.5932 5.21979C13.5364 5.24142 13.4875 5.2798 13.453 5.32984C13.4185 5.37987 13.4 5.43921 13.4 5.49999V9.29679L12.0854 8.26419C12.0227 8.21659 11.9439 8.19552 11.8658 8.20552C11.7878 8.21553 11.7168 8.2558 11.6681 8.31766C11.6195 8.37953 11.5971 8.45803 11.6058 8.53624C11.6145 8.61445 11.6536 8.68612 11.7146 8.73579L13.3238 9.99999L11.714 11.2642C11.6823 11.2883 11.6557 11.3184 11.6358 11.3529C11.6158 11.3874 11.603 11.4255 11.5979 11.465C11.5928 11.5045 11.5957 11.5446 11.6063 11.5829C11.6169 11.6213 11.635 11.6572 11.6596 11.6885C11.6842 11.7198 11.7148 11.7459 11.7496 11.7653C11.7844 11.7846 11.8227 11.7969 11.8623 11.8013C11.9019 11.8057 11.9419 11.8021 11.9801 11.7909C12.0183 11.7797 12.0539 11.7609 12.0848 11.7358L13.4 10.7032V14.5C13.4 14.5609 13.4185 14.6203 13.453 14.6704C13.4876 14.7205 13.5366 14.7589 13.5935 14.7805C13.6504 14.8021 13.7125 14.8059 13.7716 14.7914C13.8307 14.7769 13.884 14.7447 13.9244 14.6992L16.3244 11.9992C16.3516 11.9686 16.3722 11.9328 16.385 11.8939C16.3978 11.8551 16.4025 11.814 16.3988 11.7733C16.3952 11.7325 16.3832 11.693 16.3637 11.657C16.3442 11.6211 16.3176 11.5895 16.2854 11.5642L14.294 9.99999L16.2848 8.43579C16.317 8.41051 16.3436 8.37892 16.3631 8.34297C16.3826 8.30701 16.3946 8.26745 16.3982 8.22671C16.4019 8.18597 16.3972 8.14491 16.3844 8.10606C16.3716 8.06721 16.351 8.03138 16.3238 8.00079L13.9238 5.30079C13.8833 5.25526 13.83 5.22313 13.7708 5.20866C13.7117 5.19419 13.6495 5.19807 13.5926 5.21979H13.5932ZM14 10.5316L15.6638 11.839L14 13.711V10.531V10.5316ZM14 9.46839V6.28899L15.6638 8.16099L14 9.46899V9.46839Z" fill="white"/>
</g>
<defs>
<clipPath id="clip0_1_5926">
<rect width="20" height="26" fill="white" transform="translate(0 20) rotate(-90)"/>
</clipPath>
</defs>
</svg>
