<svg width="26" height="20" viewBox="0 0 26 20" fill="none" xmlns="http://www.w3.org/2000/svg">
<g clip-path="url(#clip0_1_6072)">
<path d="M26 10L10.7656 17.8125L10.7656 13.6035L-1.83981e-07 13.6035L-4.9901e-07 6.39648L10.7656 6.39648L10.7656 2.1875L26 10Z" fill="#FF7A2E"/>
<path d="M13.8752 5.07045L12.9554 6.52614C12.9405 6.54996 12.9319 6.57761 12.9306 6.60615C12.9294 6.63469 12.9355 6.66306 12.9483 6.68824C12.9611 6.71342 12.9801 6.73447 13.0033 6.74917C13.0266 6.76387 13.0531 6.77165 13.0802 6.77171H13.7V11.404C13.6045 11.3283 13.5008 11.265 13.391 11.2154L12.7454 10.9236C12.5834 10.8503 12.4454 10.7285 12.3484 10.5733C12.2514 10.418 12.1998 10.2361 12.2 10.0502V9.88182C12.4002 9.80717 12.5689 9.66028 12.6763 9.46711C12.7837 9.27395 12.8229 9.04694 12.787 8.82621C12.7511 8.60549 12.6424 8.40526 12.4801 8.26091C12.3178 8.11656 12.1123 8.03739 11.9 8.03739C11.6877 8.03739 11.4822 8.11656 11.3199 8.26091C11.1576 8.40526 11.0489 8.60549 11.013 8.82621C10.9771 9.04694 11.0163 9.27395 11.1237 9.46711C11.2311 9.66028 11.3998 9.80717 11.6 9.88182V10.0502C11.6 10.3598 11.6861 10.6627 11.8477 10.9212C12.0092 11.1798 12.2392 11.3826 12.509 11.5046L13.1546 11.7964C13.293 11.859 13.4143 11.9572 13.5074 12.082C13.6004 12.2068 13.6623 12.3543 13.6874 12.5109C13.4058 12.5912 13.1616 12.7768 13.0003 13.0331C12.8389 13.2895 12.7716 13.599 12.8108 13.9038C12.85 14.2087 12.9931 14.4881 13.2134 14.6898C13.4336 14.8915 13.7159 15.0018 14.0076 15C14.2992 14.9982 14.5803 14.8844 14.7983 14.68C15.0163 14.4756 15.1562 14.1944 15.192 13.8891C15.2279 13.5837 15.1571 13.2751 14.9929 13.0208C14.8288 12.7665 14.5825 12.5839 14.3 12.5071V11.9362C14.2999 11.7688 14.3419 11.6043 14.4215 11.4595C14.5012 11.3146 14.6158 11.1946 14.7536 11.1116L15.644 10.5749C15.8594 10.4451 16.0409 10.261 16.1723 10.0391C16.3037 9.81725 16.3809 9.56443 16.397 9.30334H16.85C16.8898 9.30334 16.9279 9.28667 16.9561 9.257C16.9842 9.22733 17 9.18708 17 9.14512V7.56284C17 7.52088 16.9842 7.48063 16.9561 7.45096C16.9279 7.42129 16.8898 7.40462 16.85 7.40462H15.35C15.3102 7.40462 15.2721 7.42129 15.2439 7.45096C15.2158 7.48063 15.2 7.52088 15.2 7.56284V9.14512C15.2 9.23246 15.2672 9.30334 15.35 9.30334H15.7946C15.7794 9.45262 15.7308 9.59597 15.6529 9.72161C15.575 9.84726 15.47 9.95162 15.3464 10.0261L14.456 10.5628C14.402 10.5954 14.3499 10.6313 14.3 10.6704V6.77171H14.9198C14.947 6.77173 14.9737 6.76396 14.997 6.74923C15.0203 6.73451 15.0394 6.71337 15.0522 6.68809C15.065 6.6628 15.0711 6.63432 15.0697 6.60569C15.0684 6.57705 15.0597 6.54934 15.0446 6.52551L14.1248 5.07045C14.1111 5.04878 14.0925 5.03101 14.0708 5.01872C14.049 5.00643 14.0247 5 14 5C13.9753 5 13.951 5.00643 13.9292 5.01872C13.9075 5.03101 13.8889 5.04878 13.8752 5.07045Z" fill="white"/>
</g>
<defs>
<clipPath id="clip0_1_6072">
<rect width="20" height="26" fill="white" transform="translate(0 20) rotate(-90)"/>
</clipPath>
</defs>
</svg>
