<svg width="30" height="26" viewBox="0 0 30 26" fill="none" xmlns="http://www.w3.org/2000/svg">
<rect width="30" height="26" rx="8" fill="#FF2020"/>
<path d="M11.7438 12.5V12.9688C11.7438 13.6133 11.6598 14.1914 11.4919 14.7031C11.3239 15.2148 11.0837 15.6504 10.7712 16.0098C10.4626 16.3691 10.0915 16.6445 9.65789 16.8359C9.2243 17.0234 8.74383 17.1172 8.21648 17.1172C7.69305 17.1172 7.21453 17.0234 6.78094 16.8359C6.35125 16.6445 5.9782 16.3691 5.6618 16.0098C5.34539 15.6504 5.0993 15.2148 4.92352 14.7031C4.75164 14.1914 4.6657 13.6133 4.6657 12.9688V12.5C4.6657 11.8555 4.75164 11.2793 4.92352 10.7715C5.09539 10.2598 5.33758 9.82422 5.65008 9.46484C5.96648 9.10156 6.33953 8.82617 6.76922 8.63867C7.20281 8.44727 7.68133 8.35156 8.20477 8.35156C8.73211 8.35156 9.21258 8.44727 9.64617 8.63867C10.0798 8.82617 10.4528 9.10156 10.7653 9.46484C11.0778 9.82422 11.318 10.2598 11.486 10.7715C11.6579 11.2793 11.7438 11.8555 11.7438 12.5ZM10.2731 12.9688V12.4883C10.2731 12.0117 10.2262 11.5918 10.1325 11.2285C10.0427 10.8613 9.90789 10.5547 9.7282 10.3086C9.55242 10.0586 9.33562 9.87109 9.07781 9.74609C8.82 9.61719 8.52898 9.55273 8.20477 9.55273C7.88055 9.55273 7.59148 9.61719 7.33758 9.74609C7.08367 9.87109 6.86687 10.0586 6.68719 10.3086C6.51141 10.5547 6.37664 10.8613 6.28289 11.2285C6.18914 11.5918 6.14227 12.0117 6.14227 12.4883V12.9688C6.14227 13.4453 6.18914 13.8672 6.28289 14.2344C6.37664 14.6016 6.51336 14.9121 6.69305 15.166C6.87664 15.416 7.09539 15.6055 7.3493 15.7344C7.6032 15.8594 7.89227 15.9219 8.21648 15.9219C8.54461 15.9219 8.83562 15.8594 9.08953 15.7344C9.34344 15.6055 9.55828 15.416 9.73406 15.166C9.90984 14.9121 10.0427 14.6016 10.1325 14.2344C10.2262 13.8672 10.2731 13.4453 10.2731 12.9688ZM14.8652 8.46875V17H13.3945V8.46875H14.8652ZM18.3457 12.2012V13.3672H14.4902V12.2012H18.3457ZM18.832 8.46875V9.64062H14.4902V8.46875H18.832ZM21.6546 8.46875V17H20.1839V8.46875H21.6546ZM25.1351 12.2012V13.3672H21.2796V12.2012H25.1351ZM25.6214 8.46875V9.64062H21.2796V8.46875H25.6214Z" fill="white"/>
</svg>
