<svg width="20" height="20" viewBox="0 0 20 20" fill="none" xmlns="http://www.w3.org/2000/svg">
<g clip-path="url(#clip0_1_5928)">
<path d="M14 1.25C14.3315 1.25 14.6495 1.3817 14.8839 1.61612C15.1183 1.85054 15.25 2.16848 15.25 2.5V17.5C15.25 17.8315 15.1183 18.1495 14.8839 18.3839C14.6495 18.6183 14.3315 18.75 14 18.75H6.5C6.16848 18.75 5.85054 18.6183 5.61612 18.3839C5.3817 18.1495 5.25 17.8315 5.25 17.5V2.5C5.25 2.16848 5.3817 1.85054 5.61612 1.61612C5.85054 1.3817 6.16848 1.25 6.5 1.25H14ZM6.5 0C5.83696 0 5.20107 0.263392 4.73223 0.732233C4.26339 1.20107 4 1.83696 4 2.5V17.5C4 18.163 4.26339 18.7989 4.73223 19.2678C5.20107 19.7366 5.83696 20 6.5 20H14C14.663 20 15.2989 19.7366 15.7678 19.2678C16.2366 18.7989 16.5 18.163 16.5 17.5V2.5C16.5 1.83696 16.2366 1.20107 15.7678 0.732233C15.2989 0.263392 14.663 0 14 0L6.5 0Z" fill="#FF7A2E"/>
<path d="M10 17.5C10.3315 17.5 10.6495 17.3683 10.8839 17.1339C11.1183 16.8995 11.25 16.5815 11.25 16.25C11.25 15.9185 11.1183 15.6005 10.8839 15.3661C10.6495 15.1317 10.3315 15 10 15C9.66848 15 9.35054 15.1317 9.11612 15.3661C8.8817 15.6005 8.75 15.9185 8.75 16.25C8.75 16.5815 8.8817 16.8995 9.11612 17.1339C9.35054 17.3683 9.66848 17.5 10 17.5Z" fill="#FF7A2E"/>
</g>
<defs>
<clipPath id="clip0_1_5928">
<rect width="20" height="20" fill="white"/>
</clipPath>
</defs>
</svg>
