<svg width="46" height="35" viewBox="0 0 46 35" fill="none" xmlns="http://www.w3.org/2000/svg">
<g opacity="0.1" filter="url(#filter0_f_2_162)">
<path d="M21.6152 15.0586V19.2422C21.6152 21.2461 21.416 22.957 21.0176 24.375C20.6309 25.7812 20.0684 26.9238 19.3301 27.8027C18.5918 28.6816 17.707 29.3262 16.6758 29.7363C15.6562 30.1465 14.5137 30.3516 13.248 30.3516C12.2402 30.3516 11.3027 30.2227 10.4355 29.9648C9.58008 29.707 8.80664 29.3027 8.11523 28.752C7.42383 28.2012 6.83203 27.4922 6.33984 26.625C5.85938 25.7461 5.48438 24.6973 5.21484 23.4785C4.95703 22.2598 4.82812 20.8477 4.82812 19.2422V15.0586C4.82812 13.043 5.02734 11.3438 5.42578 9.96094C5.82422 8.56641 6.39258 7.43555 7.13086 6.56836C7.86914 5.68945 8.74805 5.05078 9.76758 4.65234C10.7988 4.25391 11.9473 4.05469 13.2129 4.05469C14.2324 4.05469 15.1699 4.18359 16.0254 4.44141C16.8926 4.6875 17.666 5.08008 18.3457 5.61914C19.0371 6.1582 19.623 6.86133 20.1035 7.72852C20.5957 8.58398 20.9707 9.62109 21.2285 10.8398C21.4863 12.0469 21.6152 13.4531 21.6152 15.0586ZM17.3789 19.8398V14.4258C17.3789 13.4062 17.3203 12.5098 17.2031 11.7363C17.0859 10.9512 16.9102 10.2891 16.6758 9.75C16.4531 9.19922 16.1719 8.75391 15.832 8.41406C15.4922 8.0625 15.1055 7.81055 14.6719 7.6582C14.2383 7.49414 13.752 7.41211 13.2129 7.41211C12.5566 7.41211 11.9707 7.54102 11.4551 7.79883C10.9395 8.04492 10.5059 8.44336 10.1543 8.99414C9.80273 9.54492 9.5332 10.2715 9.3457 11.1738C9.16992 12.0645 9.08203 13.1484 9.08203 14.4258V19.8398C9.08203 20.8711 9.14062 21.7793 9.25781 22.5645C9.375 23.3496 9.55078 24.0234 9.78516 24.5859C10.0195 25.1367 10.3008 25.5938 10.6289 25.957C10.9688 26.3086 11.3555 26.5664 11.7891 26.7305C12.2344 26.8945 12.7207 26.9766 13.248 26.9766C13.916 26.9766 14.5078 26.8477 15.0234 26.5898C15.5391 26.332 15.9727 25.9219 16.3242 25.3594C16.6758 24.7852 16.9395 24.041 17.1152 23.127C17.291 22.2129 17.3789 21.1172 17.3789 19.8398ZM30.3691 15.2871H32.9004C33.8848 15.2871 34.6992 15.1172 35.3438 14.7773C36 14.4375 36.4863 13.9688 36.8027 13.3711C37.1191 12.7734 37.2773 12.0879 37.2773 11.3145C37.2773 10.5059 37.1309 9.81445 36.8379 9.24023C36.5566 8.6543 36.123 8.20312 35.5371 7.88672C34.9629 7.57031 34.2305 7.41211 33.3398 7.41211C32.5898 7.41211 31.9102 7.56445 31.3008 7.86914C30.7031 8.16211 30.2285 8.58398 29.877 9.13477C29.5254 9.67383 29.3496 10.3184 29.3496 11.0684H25.0957C25.0957 9.70898 25.4531 8.50195 26.168 7.44727C26.8828 6.39258 27.8555 5.56641 29.0859 4.96875C30.3281 4.35937 31.7227 4.05469 33.2695 4.05469C34.9219 4.05469 36.3633 4.33008 37.5938 4.88086C38.8359 5.41992 39.8027 6.22852 40.4941 7.30664C41.1855 8.38477 41.5312 9.7207 41.5312 11.3145C41.5312 12.041 41.3613 12.7793 41.0215 13.5293C40.6816 14.2793 40.1777 14.9648 39.5098 15.5859C38.8418 16.1953 38.0098 16.6934 37.0137 17.0801C36.0176 17.4551 34.8633 17.6426 33.5508 17.6426H30.3691V15.2871ZM30.3691 18.5918V16.2715H33.5508C35.0508 16.2715 36.3281 16.4473 37.3828 16.7988C38.4492 17.1504 39.3164 17.6367 39.9844 18.2578C40.6523 18.8672 41.1387 19.5645 41.4434 20.3496C41.7598 21.1348 41.918 21.9668 41.918 22.8457C41.918 24.041 41.7012 25.1074 41.2676 26.0449C40.8457 26.9707 40.2422 27.7559 39.457 28.4004C38.6719 29.0449 37.752 29.5312 36.6973 29.8594C35.6543 30.1875 34.5176 30.3516 33.2871 30.3516C32.1855 30.3516 31.1309 30.1992 30.123 29.8945C29.1152 29.5898 28.2129 29.1387 27.416 28.541C26.6191 27.9316 25.9863 27.1758 25.5176 26.2734C25.0605 25.3594 24.832 24.3047 24.832 23.1094H29.0684C29.0684 23.8711 29.2441 24.5449 29.5957 25.1309C29.959 25.7051 30.4629 26.1562 31.1074 26.4844C31.7637 26.8125 32.5137 26.9766 33.3574 26.9766C34.248 26.9766 35.0156 26.8184 35.6602 26.502C36.3047 26.1855 36.7969 25.7168 37.1367 25.0957C37.4883 24.4746 37.6641 23.7246 37.6641 22.8457C37.6641 21.8496 37.4707 21.041 37.084 20.4199C36.6973 19.7988 36.1465 19.3418 35.4316 19.0488C34.7168 18.7441 33.873 18.5918 32.9004 18.5918H30.3691Z" fill="#FF7A2E"/>
</g>
<defs>
<filter id="filter0_f_2_162" x="0.828125" y="0.0546875" width="45.0898" height="34.2969" filterUnits="userSpaceOnUse" color-interpolation-filters="sRGB">
<feFlood flood-opacity="0" result="BackgroundImageFix"/>
<feBlend mode="normal" in="SourceGraphic" in2="BackgroundImageFix" result="shape"/>
<feGaussianBlur stdDeviation="2" result="effect1_foregroundBlur_2_162"/>
</filter>
</defs>
</svg>
