<svg width="16" height="16" viewBox="0 0 16 16" fill="none" xmlns="http://www.w3.org/2000/svg">
<g opacity="0.4" clip-path="url(#clip0_1_6065)">
<path fill-rule="evenodd" clip-rule="evenodd" d="M7.78347 13.9701C11.0304 13.9701 13.2427 11.616 13.7003 8.97173C13.7127 8.8998 13.7392 8.83103 13.7783 8.76935C13.8173 8.70766 13.8681 8.65428 13.9278 8.61223C13.9875 8.57018 14.0549 8.5403 14.1261 8.52429C14.1973 8.50829 14.271 8.50646 14.3429 8.51893C14.4149 8.5314 14.4836 8.55791 14.5453 8.59695C14.607 8.636 14.6604 8.68681 14.7024 8.74649C14.7445 8.80616 14.7744 8.87354 14.7904 8.94476C14.8064 9.01599 14.8082 9.08967 14.7957 9.1616C14.2581 12.2667 11.6405 15.0816 7.78347 15.0816C6.144 15.0816 4.85547 14.336 3.87627 13.4656C3.1744 12.8416 2.60373 12.128 2.16747 11.5541L2.16747 13.2992C2.16747 13.4406 2.11128 13.5763 2.01126 13.6763C1.91124 13.7763 1.77558 13.8325 1.63413 13.8325C1.49268 13.8325 1.35703 13.7763 1.25701 13.6763C1.15699 13.5763 1.1008 13.4406 1.1008 13.2992L1.1008 10.0992C1.1008 9.95775 1.15699 9.82209 1.25701 9.72207C1.35703 9.62205 1.49268 9.56586 1.63413 9.56586L4.83413 9.56586C4.97558 9.56586 5.11124 9.62205 5.21126 9.72207C5.31128 9.82209 5.36747 9.95775 5.36747 10.0992C5.36747 10.2406 5.31128 10.3763 5.21126 10.4763C5.11124 10.5763 4.97558 10.6325 4.83413 10.6325L2.86507 10.6325L2.8672 10.6336C3.32587 11.2437 3.888 11.9883 4.6144 12.6336C5.472 13.3963 6.5088 13.9701 7.7824 13.9701L7.78347 13.9701ZM8.21653 2.1216C5.00373 2.1216 2.80533 4.4256 2.31467 7.03573C2.30232 7.10848 2.27562 7.17804 2.2361 7.24036C2.19659 7.30267 2.14506 7.3565 2.08453 7.39869C2.02399 7.44088 1.95566 7.47059 1.88352 7.4861C1.81138 7.5016 1.73687 7.50258 1.66435 7.48898C1.59182 7.47538 1.52273 7.44748 1.46111 7.40689C1.39948 7.36631 1.34656 7.31386 1.30542 7.25261C1.26428 7.19135 1.23575 7.12252 1.2215 7.05012C1.20724 6.97772 1.20755 6.90321 1.2224 6.83093C1.7984 3.76533 4.40107 1.01013 8.21653 1.01013C9.856 1.01013 11.1435 1.75573 12.1237 2.62613C12.8256 3.25013 13.3963 3.96373 13.8325 4.5376L13.8325 2.79253C13.8325 2.65108 13.8887 2.51543 13.9887 2.41541C14.0888 2.31539 14.2244 2.2592 14.3659 2.2592C14.5073 2.2592 14.643 2.31539 14.743 2.41541C14.843 2.51543 14.8992 2.65108 14.8992 2.79253L14.8992 5.99253C14.8992 6.13398 14.843 6.26964 14.743 6.36966C14.643 6.46967 14.5073 6.52586 14.3659 6.52586L11.1659 6.52586C11.0244 6.52586 10.8888 6.46967 10.7887 6.36966C10.6887 6.26964 10.6325 6.13398 10.6325 5.99253C10.6325 5.85108 10.6887 5.71543 10.7887 5.61541C10.8888 5.51539 11.0244 5.4592 11.1659 5.4592L13.1339 5.4592L13.1339 5.45706C12.6731 4.848 12.112 4.1024 11.3845 3.45813C10.528 2.69546 9.4912 2.1216 8.21653 2.1216Z" fill="black"/>
</g>
<defs>
<clipPath id="clip0_1_6065">
<rect width="16" height="16" fill="white" transform="translate(0 16) rotate(-90)"/>
</clipPath>
</defs>
</svg>
