<svg width="20" height="20" viewBox="0 0 20 20" fill="none" xmlns="http://www.w3.org/2000/svg">
<path d="M2.5 5.10417C2.5 4.4135 2.77437 3.75112 3.26274 3.26274C3.75112 2.77437 4.4135 2.5 5.10417 2.5H7.39583C7.53397 2.5 7.66644 2.55487 7.76412 2.65255C7.86179 2.75022 7.91667 2.8827 7.91667 3.02083C7.91667 3.15897 7.86179 3.29144 7.76412 3.38912C7.66644 3.48679 7.53397 3.54167 7.39583 3.54167H5.10417C4.68977 3.54167 4.29234 3.70629 3.99931 3.99931C3.70629 4.29234 3.54167 4.68977 3.54167 5.10417V7.39583C3.54167 7.53397 3.48679 7.66644 3.38912 7.76412C3.29144 7.86179 3.15897 7.91667 3.02083 7.91667C2.8827 7.91667 2.75022 7.86179 2.65255 7.76412C2.55487 7.66644 2.5 7.53397 2.5 7.39583V5.10417ZM12.0833 3.02083C12.0833 2.73333 12.3167 2.5 12.6042 2.5H14.8958C15.5865 2.5 16.2489 2.77437 16.7373 3.26274C17.2256 3.75112 17.5 4.4135 17.5 5.10417V7.39583C17.5 7.53397 17.4451 7.66644 17.3475 7.76412C17.2498 7.86179 17.1173 7.91667 16.9792 7.91667C16.841 7.91667 16.7086 7.86179 16.6109 7.76412C16.5132 7.66644 16.4583 7.53397 16.4583 7.39583V5.10417C16.4583 4.68977 16.2937 4.29234 16.0007 3.99931C15.7077 3.70629 15.3102 3.54167 14.8958 3.54167H12.6042C12.3167 3.54167 12.0833 3.30833 12.0833 3.02083ZM3.02083 12.0833C3.30833 12.0833 3.54167 12.3167 3.54167 12.6042V14.8958C3.54167 15.3102 3.70629 15.7077 3.99931 16.0007C4.29234 16.2937 4.68977 16.4583 5.10417 16.4583H7.39583C7.53397 16.4583 7.66644 16.5132 7.76412 16.6109C7.86179 16.7086 7.91667 16.841 7.91667 16.9792C7.91667 17.1173 7.86179 17.2498 7.76412 17.3475C7.66644 17.4451 7.53397 17.5 7.39583 17.5H5.10417C4.4135 17.5 3.75112 17.2256 3.26274 16.7373C2.77437 16.2489 2.5 15.5865 2.5 14.8958V12.6042C2.5 12.3167 2.73333 12.0833 3.02083 12.0833ZM16.9792 12.0833C17.2667 12.0833 17.5 12.3167 17.5 12.6042V14.8958C17.5 15.5865 17.2256 16.2489 16.7373 16.7373C16.2489 17.2256 15.5865 17.5 14.8958 17.5H12.6042C12.466 17.5 12.3336 17.4451 12.2359 17.3475C12.1382 17.2498 12.0833 17.1173 12.0833 16.9792C12.0833 16.841 12.1382 16.7086 12.2359 16.6109C12.3336 16.5132 12.466 16.4583 12.6042 16.4583H14.8958C15.3102 16.4583 15.7077 16.2937 16.0007 16.0007C16.2937 15.7077 16.4583 15.3102 16.4583 14.8958V12.6042C16.4583 12.3167 16.6917 12.0833 16.9792 12.0833ZM11.25 10.2083C11.25 9.87681 11.1183 9.55887 10.8839 9.32445C10.6495 9.09003 10.3315 8.95833 10 8.95833C9.66848 8.95833 9.35054 9.09003 9.11612 9.32445C8.8817 9.55887 8.75 9.87681 8.75 10.2083C8.75 10.5399 8.8817 10.8578 9.11612 11.0922C9.35054 11.3266 9.66848 11.4583 10 11.4583C10.3315 11.4583 10.6495 11.3266 10.8839 11.0922C11.1183 10.8578 11.25 10.5399 11.25 10.2083ZM11.6104 6.50542C11.5277 6.36458 11.4095 6.24782 11.2677 6.1667C11.126 6.08557 10.9654 6.0429 10.8021 6.04292H9.2175C9.05725 6.04296 8.89969 6.08408 8.75985 6.16235C8.62002 6.24062 8.50258 6.35342 8.41875 6.49L8.05417 7.08333H7.1875C6.82835 7.08333 6.48392 7.226 6.22996 7.47996C5.976 7.73391 5.83333 8.07835 5.83333 8.4375V12.3958C5.83333 12.755 5.976 13.0994 6.22996 13.3534C6.48392 13.6073 6.82835 13.75 7.1875 13.75H12.8125C13.1716 13.75 13.5161 13.6073 13.77 13.3534C14.024 13.0994 14.1667 12.755 14.1667 12.3958V8.4375C14.1667 8.07835 14.024 7.73391 13.77 7.47996C13.5161 7.226 13.1716 7.08333 12.8125 7.08333H11.95L11.6104 6.50542ZM8.125 10.2083C8.125 9.71105 8.32254 9.23414 8.67417 8.88251C9.02581 8.53088 9.50272 8.33333 10 8.33333C10.4973 8.33333 10.9742 8.53088 11.3258 8.88251C11.6775 9.23414 11.875 9.71105 11.875 10.2083C11.875 10.7056 11.6775 11.1825 11.3258 11.5342C10.9742 11.8858 10.4973 12.0833 10 12.0833C9.50272 12.0833 9.02581 11.8858 8.67417 11.5342C8.32254 11.1825 8.125 10.7056 8.125 10.2083Z" fill="#FF7A2E"/>
</svg>
