<svg width="48" height="35" viewBox="0 0 48 35" fill="none" xmlns="http://www.w3.org/2000/svg">
<g opacity="0.1" filter="url(#filter0_f_2_336)">
<path d="M21.6152 15.0586V19.2422C21.6152 21.2461 21.416 22.957 21.0176 24.375C20.6309 25.7812 20.0684 26.9238 19.3301 27.8027C18.5918 28.6816 17.707 29.3262 16.6758 29.7363C15.6562 30.1465 14.5137 30.3516 13.248 30.3516C12.2402 30.3516 11.3027 30.2227 10.4355 29.9648C9.58008 29.707 8.80664 29.3027 8.11523 28.752C7.42383 28.2012 6.83203 27.4922 6.33984 26.625C5.85938 25.7461 5.48438 24.6973 5.21484 23.4785C4.95703 22.2598 4.82812 20.8477 4.82812 19.2422V15.0586C4.82812 13.043 5.02734 11.3438 5.42578 9.96094C5.82422 8.56641 6.39258 7.43555 7.13086 6.56836C7.86914 5.68945 8.74805 5.05078 9.76758 4.65234C10.7988 4.25391 11.9473 4.05469 13.2129 4.05469C14.2324 4.05469 15.1699 4.18359 16.0254 4.44141C16.8926 4.6875 17.666 5.08008 18.3457 5.61914C19.0371 6.1582 19.623 6.86133 20.1035 7.72852C20.5957 8.58398 20.9707 9.62109 21.2285 10.8398C21.4863 12.0469 21.6152 13.4531 21.6152 15.0586ZM17.3789 19.8398V14.4258C17.3789 13.4062 17.3203 12.5098 17.2031 11.7363C17.0859 10.9512 16.9102 10.2891 16.6758 9.75C16.4531 9.19922 16.1719 8.75391 15.832 8.41406C15.4922 8.0625 15.1055 7.81055 14.6719 7.6582C14.2383 7.49414 13.752 7.41211 13.2129 7.41211C12.5566 7.41211 11.9707 7.54102 11.4551 7.79883C10.9395 8.04492 10.5059 8.44336 10.1543 8.99414C9.80273 9.54492 9.5332 10.2715 9.3457 11.1738C9.16992 12.0645 9.08203 13.1484 9.08203 14.4258V19.8398C9.08203 20.8711 9.14062 21.7793 9.25781 22.5645C9.375 23.3496 9.55078 24.0234 9.78516 24.5859C10.0195 25.1367 10.3008 25.5938 10.6289 25.957C10.9688 26.3086 11.3555 26.5664 11.7891 26.7305C12.2344 26.8945 12.7207 26.9766 13.248 26.9766C13.916 26.9766 14.5078 26.8477 15.0234 26.5898C15.5391 26.332 15.9727 25.9219 16.3242 25.3594C16.6758 24.7852 16.9395 24.041 17.1152 23.127C17.291 22.2129 17.3789 21.1172 17.3789 19.8398ZM43.0254 20.877V24.252H24.5684L24.4277 21.7031L35.4668 4.40625H38.8594L35.1855 10.6992L28.8398 20.877H43.0254ZM39.8262 4.40625V30H35.5898V4.40625H39.8262Z" fill="#FF7A2E"/>
</g>
<defs>
<filter id="filter0_f_2_336" x="0.828125" y="0.0546875" width="46.1973" height="34.2969" filterUnits="userSpaceOnUse" color-interpolation-filters="sRGB">
<feFlood flood-opacity="0" result="BackgroundImageFix"/>
<feBlend mode="normal" in="SourceGraphic" in2="BackgroundImageFix" result="shape"/>
<feGaussianBlur stdDeviation="2" result="effect1_foregroundBlur_2_336"/>
</filter>
</defs>
</svg>
