<svg width="32" height="32" viewBox="0 0 32 32" fill="none" xmlns="http://www.w3.org/2000/svg">
<path d="M15.9373 2.66669C8.61996 2.66669 2.66663 8.64802 2.66663 16C2.66663 23.352 8.64796 29.3334 16 29.3334C23.352 29.3334 29.3333 23.352 29.3333 16C29.3333 8.64802 23.324 2.66669 15.9373 2.66669ZM16 26.6667C10.1186 26.6667 5.33329 21.8814 5.33329 16C5.33329 10.1187 10.0893 5.33335 15.9373 5.33335C21.8546 5.33335 26.6666 10.1187 26.6666 16C26.6666 21.8814 21.8813 26.6667 16 26.6667Z" fill="#FF2020"/>
<path d="M14.6666 9.33331H17.3333V18.6666H14.6666V9.33331ZM14.6666 20H17.3333V22.6666H14.6666V20Z" fill="#FF2020"/>
</svg>
