<svg width="21" height="19" viewBox="0 0 21 19" fill="none" xmlns="http://www.w3.org/2000/svg">
<path d="M18.4445 14.7487C18.9261 13.9594 19.1326 13.0326 19.0314 12.1135C18.9303 11.1944 18.5272 10.3348 17.8854 9.66915C17.2436 9.00351 16.3992 8.56943 15.4844 8.43484C14.5696 8.30025 13.636 8.47275 12.8297 8.92535C12.0234 9.37794 11.3898 10.0851 11.0283 10.9361C10.6667 11.7872 10.5975 12.7341 10.8314 13.6286C11.0654 14.5232 11.5893 15.315 12.3212 15.88C13.0531 16.4451 13.9517 16.7515 14.8764 16.7514C15.6443 16.7478 16.397 16.5362 17.0542 16.1389L18.7264 17.8209C18.8168 17.912 18.9243 17.9843 19.0428 18.0337C19.1613 18.083 19.2883 18.1085 19.4167 18.1085C19.545 18.1085 19.6721 18.083 19.7906 18.0337C19.909 17.9843 20.0166 17.912 20.107 17.8209C20.1981 17.7305 20.2704 17.623 20.3198 17.5045C20.3691 17.386 20.3945 17.2589 20.3945 17.1306C20.3945 17.0023 20.3691 16.8752 20.3198 16.7567C20.2704 16.6382 20.1981 16.5307 20.107 16.4403L18.4445 14.7487ZM16.5 14.1945C16.0715 14.6028 15.5023 14.8306 14.9104 14.8306C14.3185 14.8306 13.7493 14.6028 13.3208 14.1945C12.9011 13.7719 12.6655 13.2005 12.6655 12.6049C12.6655 12.0093 12.9011 11.4379 13.3208 11.0153C13.5294 10.8063 13.7772 10.6405 14.05 10.5274C14.3227 10.4142 14.6151 10.356 14.9104 10.356C15.2057 10.356 15.4981 10.4142 15.7709 10.5274C16.0436 10.6405 16.2914 10.8063 16.5 11.0153C16.9198 11.4379 17.1553 12.0093 17.1553 12.6049C17.1553 13.2005 16.9198 13.7719 16.5 14.1945ZM17.4722 0.583374H3.86112C3.08758 0.583374 2.34571 0.890665 1.79873 1.43765C1.25175 1.98463 0.944458 2.72649 0.944458 3.50004V12.25C0.944458 13.0236 1.25175 13.7655 1.79873 14.3124C2.34571 14.8594 3.08758 15.1667 3.86112 15.1667H7.75001C8.00786 15.1667 8.25515 15.0643 8.43748 14.882C8.61981 14.6996 8.72224 14.4523 8.72224 14.1945C8.72224 13.9366 8.61981 13.6893 8.43748 13.507C8.25515 13.3247 8.00786 13.2223 7.75001 13.2223H3.86112C3.60328 13.2223 3.35599 13.1198 3.17366 12.9375C2.99133 12.7552 2.8889 12.5079 2.8889 12.25V6.41671H18.4445V7.38893C18.4445 7.64678 18.5469 7.89407 18.7292 8.07639C18.9115 8.25872 19.1588 8.36115 19.4167 8.36115C19.6745 8.36115 19.9218 8.25872 20.1041 8.07639C20.2865 7.89407 20.3889 7.64678 20.3889 7.38893V3.50004C20.3889 2.72649 20.0816 1.98463 19.5346 1.43765C18.9876 0.890665 18.2458 0.583374 17.4722 0.583374ZM18.4445 4.47226H2.8889V3.50004C2.8889 3.24219 2.99133 2.9949 3.17366 2.81258C3.35599 2.63025 3.60328 2.52782 3.86112 2.52782H17.4722C17.7301 2.52782 17.9774 2.63025 18.1597 2.81258C18.342 2.9949 18.4445 3.24219 18.4445 3.50004V4.47226ZM8.72224 8.36115H5.80557C5.54772 8.36115 5.30043 8.46358 5.1181 8.64591C4.93578 8.82824 4.83335 9.07552 4.83335 9.33337C4.83335 9.59122 4.93578 9.83851 5.1181 10.0208C5.30043 10.2032 5.54772 10.3056 5.80557 10.3056H8.72224C8.98009 10.3056 9.22737 10.2032 9.4097 10.0208C9.59203 9.83851 9.69446 9.59122 9.69446 9.33337C9.69446 9.07552 9.59203 8.82824 9.4097 8.64591C9.22737 8.46358 8.98009 8.36115 8.72224 8.36115Z" fill="black"/>
</svg>
