<svg width="24" height="24" viewBox="0 0 24 24" fill="none" xmlns="http://www.w3.org/2000/svg">
<path d="M19.5 1.5H6C5.60218 1.5 5.22064 1.65804 4.93934 1.93934C4.65804 2.22064 4.5 2.60218 4.5 3V6H3V7.5H4.5V11.25H3V12.75H4.5V16.5H3V18H4.5V21C4.5 21.3978 4.65804 21.7794 4.93934 22.0607C5.22064 22.342 5.60218 22.5 6 22.5H19.5C19.8978 22.5 20.2794 22.342 20.5607 22.0607C20.842 21.7794 21 21.3978 21 21V3C21 2.60218 20.842 2.22064 20.5607 1.93934C20.2794 1.65804 19.8978 1.5 19.5 1.5ZM19.5 21H6V18H7.5V16.5H6V12.75H7.5V11.25H6V7.5H7.5V6H6V3H19.5V21Z" fill="black"/>
<path d="M9 6H15V7.5H9V6ZM9 11.25H15V12.75H9V11.25ZM9 16.5H15V18H9V16.5Z" fill="black"/>
</svg>
