<svg width="16" height="18" viewBox="0 0 16 18" fill="none" xmlns="http://www.w3.org/2000/svg">
<path d="M3.07499 14.8334H13.075L11.9917 15.9084C11.8347 16.0653 11.7466 16.2781 11.7466 16.5C11.7466 16.7219 11.8347 16.9348 11.9917 17.0917C12.1486 17.2486 12.3614 17.3368 12.5833 17.3368C12.8052 17.3368 13.0181 17.2486 13.175 17.0917L15.675 14.5917C15.7531 14.5142 15.8151 14.4221 15.8574 14.3205C15.8997 14.219 15.9215 14.11 15.9215 14C15.9215 13.89 15.8997 13.7811 15.8574 13.6795C15.8151 13.578 15.7531 13.4858 15.675 13.4084L13.175 10.9084C13.0975 10.8303 13.0054 10.7683 12.9038 10.726C12.8023 10.6836 12.6933 10.6619 12.5833 10.6619C12.4733 10.6619 12.3644 10.6836 12.2628 10.726C12.1613 10.7683 12.0691 10.8303 11.9917 10.9084C11.9136 10.9858 11.8516 11.078 11.8092 11.1795C11.7669 11.2811 11.7452 11.39 11.7452 11.5C11.7452 11.61 11.7669 11.719 11.8092 11.8205C11.8516 11.9221 11.9136 12.0142 11.9917 12.0917L13.075 13.1667H3.07499C2.90426 13.17 2.73456 13.1397 2.57556 13.0774C2.41657 13.0151 2.2714 12.9221 2.14836 12.8037C2.02532 12.6853 1.9268 12.5438 1.85845 12.3873C1.7901 12.2308 1.75324 12.0624 1.74999 11.8917V9.83336C1.74999 9.61235 1.66219 9.40039 1.50591 9.24411C1.34963 9.08783 1.13767 9.00003 0.916657 9.00003C0.695643 9.00003 0.483681 9.08783 0.327401 9.24411C0.17112 9.40039 0.0833232 9.61235 0.0833232 9.83336V11.8917C0.0865924 12.2813 0.166569 12.6664 0.318686 13.0251C0.470803 13.3838 0.692082 13.709 0.969887 13.9822C1.24769 14.2553 1.57658 14.4711 1.93778 14.6171C2.29897 14.7632 2.6854 14.8367 3.07499 14.8334ZM2.82499 7.0917C2.98191 7.24862 3.19474 7.33677 3.41666 7.33677C3.63857 7.33677 3.8514 7.24862 4.00832 7.0917C4.16524 6.93478 4.2534 6.72195 4.2534 6.50003C4.2534 6.27811 4.16524 6.06528 4.00832 5.90836L2.92499 4.83336H12.925C13.0957 4.83005 13.2654 4.8604 13.4244 4.92269C13.5834 4.98497 13.7286 5.07797 13.8516 5.19638C13.9747 5.31478 14.0732 5.45626 14.1415 5.61274C14.2099 5.76922 14.2467 5.93764 14.25 6.10836V8.1667C14.25 8.38771 14.3378 8.59967 14.4941 8.75595C14.6503 8.91223 14.8623 9.00003 15.0833 9.00003C15.3043 9.00003 15.5163 8.91223 15.6726 8.75595C15.8289 8.59967 15.9167 8.38771 15.9167 8.1667V6.10836C15.9134 5.71877 15.8334 5.33364 15.6813 4.97496C15.5292 4.61627 15.3079 4.29107 15.0301 4.0179C14.7523 3.74474 14.4234 3.52898 14.0622 3.38293C13.701 3.23687 13.3146 3.1634 12.925 3.1667H2.92499L4.00832 2.0917C4.08643 2.01423 4.14843 1.92206 4.19073 1.82051C4.23304 1.71896 4.25482 1.61004 4.25482 1.50003C4.25482 1.39002 4.23304 1.2811 4.19073 1.17955C4.14843 1.078 4.08643 0.985833 4.00832 0.908364C3.93085 0.830257 3.83869 0.768262 3.73714 0.725954C3.63559 0.683647 3.52667 0.661865 3.41666 0.661865C3.30665 0.661865 3.19773 0.683647 3.09618 0.725954C2.99463 0.768262 2.90246 0.830257 2.82499 0.908364L0.32499 3.40836C0.246883 3.48583 0.184888 3.578 0.14258 3.67955C0.100273 3.7811 0.0784912 3.89002 0.0784912 4.00003C0.0784912 4.11004 0.100273 4.21896 0.14258 4.32051C0.184888 4.42206 0.246883 4.51423 0.32499 4.5917L2.82499 7.0917Z" fill="#FF7A2E"/>
</svg>
