<svg width="24" height="24" viewBox="0 0 24 24" fill="none" xmlns="http://www.w3.org/2000/svg">
<path d="M6.09 18.9999H18.09L16.79 20.2899C16.6017 20.4782 16.4959 20.7336 16.4959 20.9999C16.4959 21.2662 16.6017 21.5216 16.79 21.7099C16.9783 21.8982 17.2337 22.004 17.5 22.004C17.7663 22.004 18.0217 21.8982 18.21 21.7099L21.21 18.7099C21.3037 18.617 21.3781 18.5064 21.4289 18.3845C21.4797 18.2627 21.5058 18.1319 21.5058 17.9999C21.5058 17.8679 21.4797 17.7372 21.4289 17.6154C21.3781 17.4935 21.3037 17.3829 21.21 17.2899L18.21 14.2899C18.117 14.1962 18.0064 14.1218 17.8846 14.071C17.7627 14.0203 17.632 13.9941 17.5 13.9941C17.368 13.9941 17.2373 14.0203 17.1154 14.071C16.9936 14.1218 16.883 14.1962 16.79 14.2899C16.6963 14.3829 16.6219 14.4935 16.5711 14.6154C16.5203 14.7372 16.4942 14.8679 16.4942 14.9999C16.4942 15.1319 16.5203 15.2627 16.5711 15.3845C16.6219 15.5064 16.6963 15.617 16.79 15.7099L18.09 16.9999H6.09C5.88513 17.0039 5.68148 16.9675 5.49069 16.8927C5.29989 16.818 5.1257 16.7064 4.97804 16.5643C4.83039 16.4222 4.71218 16.2525 4.63015 16.0647C4.54813 15.8769 4.5039 15.6748 4.5 15.4699V12.9999C4.5 12.7347 4.39464 12.4804 4.20711 12.2928C4.01957 12.1053 3.76522 11.9999 3.5 11.9999C3.23478 11.9999 2.98043 12.1053 2.79289 12.2928C2.60536 12.4804 2.5 12.7347 2.5 12.9999V15.4699C2.50392 15.9374 2.59989 16.3996 2.78244 16.83C2.96498 17.2604 3.23051 17.6507 3.56388 17.9785C3.89724 18.3063 4.29191 18.5652 4.72534 18.7405C5.15878 18.9157 5.62249 19.0039 6.09 18.9999ZM5.79 9.70994C5.9783 9.89824 6.2337 10.004 6.5 10.004C6.7663 10.004 7.0217 9.89824 7.21 9.70994C7.3983 9.52163 7.50409 9.26624 7.50409 8.99994C7.50409 8.73364 7.3983 8.47824 7.21 8.28994L5.91 6.99994H17.91C18.1149 6.99596 18.3185 7.03238 18.5093 7.10713C18.7001 7.18187 18.8743 7.29347 19.022 7.43555C19.1696 7.57763 19.2878 7.74741 19.3698 7.93519C19.4519 8.12297 19.4961 8.32506 19.5 8.52994V10.9999C19.5 11.2652 19.6054 11.5195 19.7929 11.707C19.9804 11.8946 20.2348 11.9999 20.5 11.9999C20.7652 11.9999 21.0196 11.8946 21.2071 11.707C21.3946 11.5195 21.5 11.2652 21.5 10.9999V8.52994C21.4961 8.06243 21.4001 7.60027 21.2176 7.16985C21.035 6.73943 20.7695 6.34918 20.4361 6.02139C20.1028 5.69359 19.7081 5.43467 19.2747 5.25941C18.8412 5.08415 18.3775 4.99598 17.91 4.99994H5.91L7.21 3.70994C7.30373 3.61698 7.37812 3.50637 7.42889 3.38452C7.47966 3.26266 7.5058 3.13195 7.5058 2.99994C7.5058 2.86793 7.47966 2.73722 7.42889 2.61536C7.37812 2.4935 7.30373 2.3829 7.21 2.28994C7.11704 2.19621 7.00644 2.12182 6.88458 2.07105C6.76272 2.02028 6.63201 1.99414 6.5 1.99414C6.36799 1.99414 6.23728 2.02028 6.11542 2.07105C5.99356 2.12182 5.88296 2.19621 5.79 2.28994L2.79 5.28994C2.69627 5.3829 2.62188 5.4935 2.57111 5.61536C2.52034 5.73722 2.4942 5.86793 2.4942 5.99994C2.4942 6.13195 2.52034 6.26266 2.57111 6.38452C2.62188 6.50637 2.69627 6.61698 2.79 6.70994L5.79 9.70994Z" fill="black"/>
</svg>
