<svg width="20" height="20" viewBox="0 0 20 20" fill="none" xmlns="http://www.w3.org/2000/svg">
<path d="M9.16667 1.66669L15.2483 3.56669C15.418 3.61964 15.5662 3.72542 15.6714 3.86859C15.7767 4.01177 15.8334 4.18483 15.8333 4.36252V5.83335H17.5C17.721 5.83335 17.933 5.92115 18.0893 6.07743C18.2455 6.23371 18.3333 6.44567 18.3333 6.66669V13.3334C18.3333 13.5544 18.2455 13.7663 18.0893 13.9226C17.933 14.0789 17.721 14.1667 17.5 14.1667L14.8167 14.1675C14.4942 14.5925 14.1025 14.9675 13.65 15.2759L9.16667 18.3334L4.68333 15.2767C4.01044 14.8179 3.45979 14.2017 3.07928 13.4816C2.69877 12.7616 2.49992 11.9594 2.5 11.145V4.36252C2.5001 4.18497 2.55691 4.0121 2.66214 3.86909C2.76736 3.72609 2.91552 3.62043 3.085 3.56752L9.16667 1.66669ZM9.16667 3.41169L4.16667 4.97502V11.145C4.16655 11.6552 4.28354 12.1586 4.50864 12.6165C4.73373 13.0743 5.06092 13.4744 5.465 13.7859L5.6225 13.8992L9.16667 16.3167L12.3183 14.1667H8.33333C8.11232 14.1667 7.90036 14.0789 7.74408 13.9226C7.5878 13.7663 7.5 13.5544 7.5 13.3334V6.66669C7.5 6.44567 7.5878 6.23371 7.74408 6.07743C7.90036 5.92115 8.11232 5.83335 8.33333 5.83335H14.1667V4.97502L9.16667 3.41169ZM9.16667 10V12.5H16.6667V10H9.16667ZM9.16667 8.33335H16.6667V7.50002H9.16667V8.33335Z" fill="black"/>
</svg>
