<svg width="20" height="20" viewBox="0 0 20 20" fill="none" xmlns="http://www.w3.org/2000/svg">
<path d="M9.16667 1.66667L15.2483 3.56667C15.418 3.61962 15.5662 3.7254 15.6714 3.86857C15.7767 4.01174 15.8334 4.18481 15.8333 4.3625V5.83333H17.5C17.721 5.83333 17.933 5.92113 18.0893 6.07741C18.2455 6.23369 18.3333 6.44565 18.3333 6.66667V13.3333C18.3333 13.5543 18.2455 13.7663 18.0893 13.9226C17.933 14.0789 17.721 14.1667 17.5 14.1667L14.8167 14.1675C14.4942 14.5925 14.1025 14.9675 13.65 15.2758L9.16667 18.3333L4.68333 15.2767C4.01044 14.8179 3.45979 14.2017 3.07928 13.4816C2.69877 12.7615 2.49992 11.9594 2.5 11.145V4.3625C2.5001 4.18495 2.55691 4.01207 2.66214 3.86907C2.76736 3.72607 2.91552 3.62041 3.085 3.5675L9.16667 1.66667ZM9.16667 3.41167L4.16667 4.975V11.145C4.16655 11.6552 4.28354 12.1586 4.50864 12.6164C4.73373 13.0743 5.06092 13.4744 5.465 13.7858L5.6225 13.8992L9.16667 16.3167L12.3183 14.1667H8.33333C8.11232 14.1667 7.90036 14.0789 7.74408 13.9226C7.5878 13.7663 7.5 13.5543 7.5 13.3333V6.66667C7.5 6.44565 7.5878 6.23369 7.74408 6.07741C7.90036 5.92113 8.11232 5.83333 8.33333 5.83333H14.1667V4.975L9.16667 3.41167ZM9.16667 10V12.5H16.6667V10H9.16667ZM9.16667 8.33333H16.6667V7.5H9.16667V8.33333Z" fill="#FF7A2E"/>
</svg>
