<svg width="20" height="20" viewBox="0 0 20 20" fill="none" xmlns="http://www.w3.org/2000/svg">
<path d="M7.17503 18.3334C6.76838 18.331 6.37354 18.1964 6.05003 17.95L4.32503 16.6667C3.92695 16.3563 3.66283 15.9053 3.58689 15.4063C3.51095 14.9073 3.62896 14.3981 3.9167 13.9834C4.06894 13.7586 4.16569 13.5009 4.19901 13.2314C4.23232 12.962 4.20126 12.6885 4.10836 12.4334L4.05836 12.3C3.99368 12.0691 3.87545 11.8567 3.71329 11.6801C3.55112 11.5034 3.34958 11.3675 3.12503 11.2834H2.9917C2.50492 11.1197 2.10237 10.7706 1.87145 10.3119C1.64054 9.85314 1.5999 9.32185 1.75836 8.83335L2.4417 6.66669C2.5046 6.41566 2.62041 6.18096 2.78137 5.97832C2.94234 5.77567 3.14474 5.60976 3.37503 5.49169C3.58949 5.38119 3.82414 5.31535 4.06478 5.29816C4.30542 5.28098 4.54704 5.31279 4.77503 5.39169C5.02327 5.47523 5.28815 5.49689 5.54666 5.45477C5.80517 5.41265 6.04948 5.30804 6.25836 5.15002L6.3667 5.06669C6.55577 4.91582 6.70859 4.72444 6.81387 4.50666C6.91916 4.28888 6.97423 4.05025 6.97503 3.80835V3.60835C6.97279 3.09846 7.17207 2.60833 7.52949 2.24467C7.8869 1.88101 8.37351 1.67328 8.88336 1.66669H11.0084C11.2564 1.66736 11.5019 1.71702 11.7307 1.81284C11.9595 1.90866 12.1672 2.04873 12.3417 2.22502C12.7086 2.59818 12.9124 3.10171 12.9084 3.62502V3.85835C12.9041 4.08815 12.954 4.31572 13.0538 4.52271C13.1537 4.72971 13.3009 4.91033 13.4834 5.05002L13.575 5.11669C13.7621 5.25694 13.9802 5.34989 14.2109 5.38761C14.4417 5.42534 14.6781 5.40673 14.9 5.33335L15.1834 5.24169C15.4234 5.16211 15.677 5.1317 15.9291 5.15227C16.1812 5.17283 16.4265 5.24395 16.6505 5.36139C16.8745 5.47882 17.0725 5.64016 17.2328 5.83579C17.393 6.03141 17.5123 6.25732 17.5834 6.50002L18.2417 8.60002C18.394 9.08535 18.3524 9.61082 18.1255 10.0661C17.8987 10.5214 17.5042 10.871 17.025 11.0417L16.8584 11.1C16.6132 11.1803 16.3916 11.3195 16.2128 11.5055C16.0341 11.6915 15.9038 11.9186 15.8334 12.1667C15.767 12.3974 15.7513 12.6396 15.7873 12.877C15.8232 13.1143 15.91 13.341 16.0417 13.5417L16.2584 13.8584C16.5457 14.2754 16.6626 14.7865 16.5851 15.287C16.5077 15.7875 16.2417 16.2394 15.8417 16.55L14.1667 17.8417C13.9643 17.9964 13.7324 18.1081 13.4853 18.1699C13.2381 18.2317 12.9809 18.2422 12.7296 18.2008C12.4782 18.1594 12.238 18.067 12.0236 17.9293C11.8093 17.7916 11.6254 17.6115 11.4834 17.4L11.3834 17.2584C11.2469 17.0532 11.0607 16.8861 10.8421 16.7724C10.6235 16.6587 10.3797 16.6023 10.1334 16.6084C9.89834 16.6144 9.66804 16.6757 9.46105 16.7871C9.25405 16.8986 9.07615 17.0572 8.9417 17.25L8.75003 17.525C8.6079 17.738 8.42366 17.9195 8.20868 18.0586C7.9937 18.1976 7.75253 18.2911 7.50003 18.3334C7.39195 18.3439 7.2831 18.3439 7.17503 18.3334ZM3.6667 9.68335C4.13727 9.85115 4.56188 10.1271 4.90636 10.4889C5.25084 10.8508 5.50556 11.2884 5.65003 11.7667V11.8667C5.82997 12.3639 5.88906 12.8967 5.82241 13.4213C5.75575 13.9458 5.56527 14.447 5.2667 14.8834C5.21399 14.9416 5.18481 15.0173 5.18481 15.0959C5.18481 15.1744 5.21399 15.2501 5.2667 15.3084L7.05836 16.6667C7.08174 16.685 7.10877 16.6982 7.13765 16.7052C7.16652 16.7123 7.19657 16.7131 7.22578 16.7076C7.25498 16.702 7.28267 16.6903 7.30697 16.6732C7.33128 16.6561 7.35164 16.634 7.3667 16.6084L7.55836 16.3334C7.84744 15.9157 8.23348 15.5743 8.68341 15.3385C9.13334 15.1027 9.63373 14.9796 10.1417 14.9796C10.6497 14.9796 11.1501 15.1027 11.6 15.3385C12.0499 15.5743 12.436 15.9157 12.725 16.3334L12.825 16.4834C12.8609 16.5342 12.9143 16.5698 12.975 16.5834C13.0029 16.5875 13.0312 16.5859 13.0585 16.5787C13.0857 16.5716 13.1112 16.559 13.1334 16.5417L14.85 15.2417C14.9101 15.194 14.9497 15.1251 14.9605 15.0491C14.9714 14.9732 14.9527 14.896 14.9084 14.8334L14.6917 14.5167C14.4094 14.105 14.2231 13.6352 14.1467 13.1419C14.0702 12.6486 14.1056 12.1445 14.25 11.6667C14.3965 11.1645 14.6614 10.7048 15.0225 10.3263C15.3836 9.94784 15.8303 9.6616 16.325 9.49169L16.4917 9.43335C16.5612 9.40553 16.6168 9.35136 16.6465 9.28266C16.6761 9.21397 16.6774 9.13633 16.65 9.06669L16 6.99169C15.9844 6.95538 15.9616 6.92263 15.933 6.89541C15.9043 6.86819 15.8704 6.84708 15.8334 6.83335C15.8088 6.82091 15.7817 6.81442 15.7542 6.81442C15.7267 6.81442 15.6996 6.82091 15.675 6.83335L15.3917 6.92502C14.9124 7.08321 14.4019 7.12262 13.904 7.03988C13.4061 6.95714 12.9357 6.75472 12.5334 6.45002L12.5 6.37502C12.1139 6.08262 11.8009 5.7047 11.5854 5.27093C11.37 4.83716 11.258 4.35935 11.2584 3.87502V3.61669C11.2599 3.53637 11.23 3.45863 11.175 3.40002C11.1271 3.35669 11.0646 3.33291 11 3.33335H8.88336C8.84941 3.33547 8.81622 3.34428 8.78568 3.35926C8.75514 3.37424 8.72786 3.3951 8.70541 3.42066C8.68295 3.44621 8.66577 3.47594 8.65483 3.50815C8.6439 3.54036 8.63944 3.57441 8.6417 3.60835V3.81669C8.64175 4.31422 8.52757 4.80512 8.30796 5.25156C8.08835 5.698 7.76918 6.08807 7.37503 6.39169L7.2667 6.47502C6.84147 6.79878 6.34313 7.01296 5.81561 7.0987C5.28808 7.18444 4.74757 7.13911 4.2417 6.96669C4.20384 6.95398 4.16288 6.95398 4.12503 6.96669C4.078 6.99526 4.04258 7.03953 4.02503 7.09169L3.33336 9.26669C3.30925 9.34076 3.3149 9.42131 3.34912 9.4913C3.38333 9.56129 3.44343 9.61522 3.5167 9.64169L3.6667 9.68335Z" fill="black"/>
<path d="M9.99998 12.9166C9.42312 12.9166 8.85921 12.7456 8.37957 12.4251C7.89992 12.1046 7.52609 11.6491 7.30533 11.1161C7.08458 10.5832 7.02682 9.99674 7.13936 9.43097C7.2519 8.86519 7.52968 8.34549 7.93759 7.93759C8.34549 7.52968 8.86519 7.2519 9.43097 7.13936C9.99674 7.02682 10.5832 7.08458 11.1161 7.30533C11.6491 7.52609 12.1046 7.89992 12.4251 8.37957C12.7456 8.85921 12.9166 9.42312 12.9166 9.99998C12.9166 10.7735 12.6094 11.5154 12.0624 12.0624C11.5154 12.6094 10.7735 12.9166 9.99998 12.9166ZM9.99998 8.74998C9.75275 8.74998 9.51108 8.82329 9.30552 8.96064C9.09996 9.098 8.93974 9.29322 8.84513 9.52163C8.75052 9.75003 8.72577 10.0014 8.774 10.2438C8.82223 10.4863 8.94128 10.709 9.1161 10.8839C9.29091 11.0587 9.51364 11.1777 9.75612 11.226C9.99859 11.2742 10.2499 11.2494 10.4783 11.1548C10.7067 11.0602 10.902 10.9 11.0393 10.6944C11.1767 10.4889 11.25 10.2472 11.25 9.99998C11.25 9.66846 11.1183 9.35052 10.8839 9.1161C10.6494 8.88168 10.3315 8.74998 9.99998 8.74998Z" fill="black"/>
</svg>
