<svg width="20" height="20" viewBox="0 0 20 20" fill="none" xmlns="http://www.w3.org/2000/svg">
<path d="M16.6666 1.66669H8.33331C7.67027 1.66669 7.03439 1.93008 6.56555 2.39892C6.0967 2.86776 5.83331 3.50365 5.83331 4.16669V10C5.83331 10.6631 6.0967 11.2989 6.56555 11.7678C7.03439 12.2366 7.67027 12.5 8.33331 12.5H16.6666C17.3297 12.5 17.9656 12.2366 18.4344 11.7678C18.9033 11.2989 19.1666 10.6631 19.1666 10V4.16669C19.1666 3.50365 18.9033 2.86776 18.4344 2.39892C17.9656 1.93008 17.3297 1.66669 16.6666 1.66669ZM17.5 10C17.5 10.221 17.4122 10.433 17.2559 10.5893C17.0996 10.7456 16.8877 10.8334 16.6666 10.8334H8.33331C8.1123 10.8334 7.90034 10.7456 7.74406 10.5893C7.58778 10.433 7.49998 10.221 7.49998 10V4.16669C7.49998 3.94567 7.58778 3.73371 7.74406 3.57743C7.90034 3.42115 8.1123 3.33335 8.33331 3.33335H16.6666C16.8877 3.33335 17.0996 3.42115 17.2559 3.57743C17.4122 3.73371 17.5 3.94567 17.5 4.16669V10ZM14.5833 6.66669C14.2748 6.66773 13.9777 6.78359 13.75 6.99169C13.5708 6.82881 13.3481 6.72149 13.1091 6.68277C12.8701 6.64405 12.6249 6.67559 12.4035 6.77357C12.182 6.87154 11.9938 7.03173 11.8617 7.23466C11.7296 7.43759 11.6592 7.67453 11.6592 7.91669C11.6592 8.15884 11.7296 8.39578 11.8617 8.59871C11.9938 8.80165 12.182 8.96183 12.4035 9.05981C12.6249 9.15778 12.8701 9.18932 13.1091 9.1506C13.3481 9.11188 13.5708 9.00456 13.75 8.84169C13.9005 8.97846 14.082 9.07646 14.279 9.12717C14.4759 9.17788 14.6822 9.17979 14.8801 9.13271C15.0779 9.08564 15.2613 8.99101 15.4142 8.85704C15.5672 8.72306 15.6852 8.55378 15.758 8.36389C15.8307 8.174 15.8561 7.96922 15.8318 7.76732C15.8075 7.56542 15.7343 7.3725 15.6185 7.20529C15.5028 7.03808 15.348 6.90162 15.1676 6.80777C14.9872 6.71391 14.7867 6.66548 14.5833 6.66669V6.66669ZM13.3333 14.1667C13.1123 14.1667 12.9003 14.2545 12.7441 14.4108C12.5878 14.567 12.5 14.779 12.5 15V15.8334C12.5 16.0544 12.4122 16.2663 12.2559 16.4226C12.0996 16.5789 11.8877 16.6667 11.6666 16.6667H3.33331C3.1123 16.6667 2.90034 16.5789 2.74406 16.4226C2.58778 16.2663 2.49998 16.0544 2.49998 15.8334V12.5H3.33331C3.55433 12.5 3.76629 12.4122 3.92257 12.2559C4.07885 12.0997 4.16665 11.8877 4.16665 11.6667C4.16665 11.4457 4.07885 11.2337 3.92257 11.0774C3.76629 10.9212 3.55433 10.8334 3.33331 10.8334H2.49998V10C2.49998 9.77901 2.58778 9.56705 2.74406 9.41077C2.90034 9.25448 3.1123 9.16669 3.33331 9.16669C3.55433 9.16669 3.76629 9.07889 3.92257 8.92261C4.07885 8.76633 4.16665 8.55437 4.16665 8.33335C4.16665 8.11234 4.07885 7.90038 3.92257 7.7441C3.76629 7.58782 3.55433 7.50002 3.33331 7.50002C2.67027 7.50002 2.03439 7.76341 1.56555 8.23225C1.09671 8.70109 0.833313 9.33698 0.833313 10V15.8334C0.833313 16.4964 1.09671 17.1323 1.56555 17.6011C2.03439 18.07 2.67027 18.3334 3.33331 18.3334H11.6666C12.3297 18.3334 12.9656 18.07 13.4344 17.6011C13.9033 17.1323 14.1666 16.4964 14.1666 15.8334V15C14.1666 14.779 14.0788 14.567 13.9226 14.4108C13.7663 14.2545 13.5543 14.1667 13.3333 14.1667ZM4.99998 15H5.83331C6.05433 15 6.26629 14.9122 6.42257 14.7559C6.57885 14.5997 6.66665 14.3877 6.66665 14.1667C6.66665 13.9457 6.57885 13.7337 6.42257 13.5774C6.26629 13.4212 6.05433 13.3334 5.83331 13.3334H4.99998C4.77897 13.3334 4.567 13.4212 4.41072 13.5774C4.25444 13.7337 4.16665 13.9457 4.16665 14.1667C4.16665 14.3877 4.25444 14.5997 4.41072 14.7559C4.567 14.9122 4.77897 15 4.99998 15Z" fill="#FF7A2E"/>
</svg>
