<svg width="18" height="18" viewBox="0 0 18 18" fill="none" xmlns="http://www.w3.org/2000/svg">
<path fill-rule="evenodd" clip-rule="evenodd" d="M18 0H0V18H18V0ZM11.25 6.75C11.25 6.35218 11.092 5.97064 10.8107 5.68934C10.5294 5.40804 10.1478 5.25 9.75 5.25H8.25C7.93975 5.24995 7.63711 5.34606 7.38374 5.5251C7.13036 5.70414 6.9387 5.9573 6.83512 6.24975C6.76629 6.43384 6.62795 6.58356 6.44985 6.66669C6.27176 6.74982 6.06815 6.75973 5.88283 6.69427C5.69751 6.62881 5.54529 6.49322 5.45892 6.31667C5.37255 6.14013 5.35894 5.93673 5.421 5.75025C5.62793 5.1653 6.01107 4.65886 6.5177 4.30065C7.02433 3.94244 7.62953 3.75006 8.25 3.75H9.75C10.3562 3.75002 10.9482 3.93371 11.448 4.27687C11.9478 4.62002 12.3318 5.10653 12.5496 5.6723C12.7674 6.23806 12.8087 6.85653 12.668 7.44622C12.5273 8.0359 12.2113 8.56912 11.7615 8.97563L7.8555 12.75H12C12.1989 12.75 12.3897 12.829 12.5303 12.9697C12.671 13.1103 12.75 13.3011 12.75 13.5C12.75 13.6989 12.671 13.8897 12.5303 14.0303C12.3897 14.171 12.1989 14.25 12 14.25H6C5.85058 14.25 5.70457 14.2054 5.58068 14.1218C5.4568 14.0383 5.36069 13.9196 5.30469 13.7811C5.24868 13.6426 5.23533 13.4905 5.26634 13.3443C5.29735 13.1982 5.37132 13.0646 5.47875 12.9608L10.7288 7.88775L10.7498 7.86825C10.9074 7.72778 11.0335 7.55549 11.1197 7.36274C11.206 7.16999 11.2504 6.96116 11.25 6.75Z" fill="#FF7A2E"/>
</svg>
