<svg width="18" height="19" viewBox="0 0 18 19" fill="none" xmlns="http://www.w3.org/2000/svg">
<path fill-rule="evenodd" clip-rule="evenodd" d="M18 0.5H0V18.5H18V0.5ZM10.875 5C10.875 4.85169 10.831 4.70671 10.7486 4.58341C10.6661 4.4601 10.549 4.36399 10.412 4.30724C10.275 4.25049 10.1242 4.23564 9.97873 4.26456C9.83326 4.29349 9.69964 4.36489 9.59475 4.46975L7.71975 6.34475C7.64812 6.41394 7.59098 6.49669 7.55167 6.5882C7.51237 6.6797 7.49168 6.77811 7.49081 6.8777C7.48995 6.97728 7.50892 7.07604 7.54663 7.16822C7.58434 7.26039 7.64003 7.34413 7.71045 7.41455C7.78087 7.48497 7.86461 7.54066 7.95678 7.57837C8.04896 7.61608 8.14772 7.63505 8.2473 7.63419C8.34689 7.63332 8.4453 7.61263 8.5368 7.57333C8.62831 7.53402 8.71106 7.47688 8.78025 7.40525L9.375 6.8105V14C9.375 14.1989 9.45402 14.3897 9.59467 14.5303C9.73532 14.671 9.92609 14.75 10.125 14.75C10.3239 14.75 10.5147 14.671 10.6553 14.5303C10.796 14.3897 10.875 14.1989 10.875 14V5Z" fill="#FF7A2E"/>
</svg>
