<svg width="24" height="24" viewBox="0 0 24 24" fill="none" xmlns="http://www.w3.org/2000/svg">
<path fill-rule="evenodd" clip-rule="evenodd" d="M24 0H0V24H24V0ZM14.5 6C14.5 5.80225 14.4413 5.60895 14.3314 5.44454C14.2215 5.28013 14.0654 5.15199 13.8827 5.07632C13.7 5.00065 13.4989 4.98085 13.305 5.01942C13.111 5.05798 12.9329 5.15319 12.793 5.293L10.293 7.793C10.1975 7.88525 10.1213 7.99559 10.0689 8.1176C10.0165 8.2396 9.9889 8.37082 9.98775 8.5036C9.9866 8.63638 10.0119 8.76806 10.0622 8.89095C10.1125 9.01385 10.1867 9.1255 10.2806 9.21939C10.3745 9.31329 10.4861 9.38754 10.609 9.43782C10.7319 9.4881 10.8636 9.5134 10.9964 9.51225C11.1292 9.5111 11.2604 9.48351 11.3824 9.4311C11.5044 9.37869 11.6148 9.30251 11.707 9.207L12.5 8.414V18C12.5 18.2652 12.6054 18.5196 12.7929 18.7071C12.9804 18.8946 13.2348 19 13.5 19C13.7652 19 14.0196 18.8946 14.2071 18.7071C14.3946 18.5196 14.5 18.2652 14.5 18V6Z" fill="#FF7A2E"/>
</svg>
