<svg width="24" height="24" viewBox="0 0 24 24" fill="none" xmlns="http://www.w3.org/2000/svg">
<path fill-rule="evenodd" clip-rule="evenodd" d="M24 0H0V24H24V0ZM15 9C15 8.46957 14.7893 7.96086 14.4142 7.58579C14.0391 7.21071 13.5304 7 13 7H11C10.5863 6.99994 10.1828 7.12808 9.84498 7.3668C9.50715 7.60552 9.25159 7.94307 9.1135 8.333C9.02172 8.57846 8.83726 8.77808 8.59981 8.88892C8.36235 8.99977 8.09087 9.01297 7.84378 8.92569C7.59668 8.83841 7.39372 8.65763 7.27856 8.42223C7.16341 8.18684 7.14525 7.91565 7.228 7.667C7.5039 6.88707 8.01476 6.21182 8.69027 5.7342C9.36577 5.25659 10.1727 5.00009 11 5H13C13.8083 5.00003 14.5976 5.24495 15.264 5.70249C15.9304 6.16002 16.4425 6.80871 16.7328 7.56306C17.0232 8.31742 17.0782 9.14204 16.8906 9.92829C16.7031 10.7145 16.2817 11.4255 15.682 11.9675L10.474 17H16C16.2652 17 16.5196 17.1054 16.7071 17.2929C16.8946 17.4804 17 17.7348 17 18C17 18.2652 16.8946 18.5196 16.7071 18.7071C16.5196 18.8946 16.2652 19 16 19H8C7.80077 19 7.60609 18.9405 7.44091 18.8291C7.27573 18.7177 7.14759 18.5595 7.07292 18.3748C6.99824 18.1901 6.98044 17.9873 7.02179 17.7924C7.06314 17.5976 7.16176 17.4195 7.305 17.281L14.305 10.517L14.333 10.491C14.5432 10.3037 14.7113 10.074 14.8263 9.81699C14.9413 9.55999 15.0005 9.28154 15 9Z" fill="#FF7A2E"/>
</svg>
