<svg width="24" height="24" viewBox="0 0 24 24" fill="none" xmlns="http://www.w3.org/2000/svg">
<path fill-rule="evenodd" clip-rule="evenodd" d="M24 0H0V24H24V0ZM15 9C15 7.9155 14.096 7 12.935 7H10.891C9.9795 7 9.219 7.5685 8.941 8.34C8.85083 8.5895 8.66523 8.79296 8.42504 8.90563C8.18486 9.01829 7.90975 9.03092 7.66025 8.94075C7.41075 8.85058 7.20729 8.66498 7.09462 8.42479C6.98196 8.18461 6.96933 7.9095 7.0595 7.66C7.6225 6.101 9.133 5 10.891 5H12.9345C15.16 5 17 6.7705 17 9C17.0002 9.56968 16.8772 10.1327 16.6397 10.6505C16.4021 11.1682 16.0555 11.6286 15.6235 12C16.0555 12.3714 16.4021 12.8318 16.6397 13.3495C16.8772 13.8673 17.0002 14.4303 17 15C17 17.2295 15.1595 19 12.935 19H10.891C9.133 19 7.6225 17.899 7.0595 16.34C7.01485 16.2165 6.99497 16.0854 7.00098 15.9542C7.00699 15.823 7.03879 15.6943 7.09455 15.5754C7.15031 15.4565 7.22895 15.3497 7.32597 15.2612C7.42299 15.1727 7.53649 15.1041 7.66 15.0595C7.90944 14.9693 8.18448 14.9819 8.42462 15.0946C8.54352 15.1503 8.65028 15.2289 8.7388 15.326C8.82731 15.423 8.89585 15.5365 8.9405 15.66C9.219 16.4315 9.9795 17 10.891 17H12.9345C14.096 17 15 16.0845 15 15C15 13.9155 14.096 13 12.935 13H10.891C10.6258 13 10.3714 12.8946 10.1839 12.7071C9.99636 12.5196 9.891 12.2652 9.891 12C9.891 11.7348 9.99636 11.4804 10.1839 11.2929C10.3714 11.1054 10.6258 11 10.891 11H12.9345C14.096 11 15 10.0845 15 9Z" fill="#FF7A2E"/>
</svg>
