<svg width="24" height="24" viewBox="0 0 24 24" fill="none" xmlns="http://www.w3.org/2000/svg">
<path d="M12.9999 9.30298V14H9.86841L12.9999 9.30298Z" fill="#FF7A2E"/>
<path fill-rule="evenodd" clip-rule="evenodd" d="M24 0H0V24H24V0ZM15 6C15 5.78536 14.931 5.57641 14.8032 5.40402C14.6753 5.23163 14.4954 5.10496 14.2899 5.04273C14.0845 4.9805 13.8645 4.98601 13.6625 5.05845C13.4604 5.1309 13.2871 5.26642 13.168 5.445L7.168 14.445C7.06752 14.5956 7.00981 14.7707 7.00103 14.9515C6.99224 15.1323 7.03272 15.3121 7.11813 15.4718C7.20354 15.6314 7.33068 15.7648 7.48599 15.8579C7.6413 15.9509 7.81896 16 8 16H13V18C13 18.2652 13.1054 18.5196 13.2929 18.7071C13.4804 18.8946 13.7348 19 14 19C14.2652 19 14.5196 18.8946 14.7071 18.7071C14.8946 18.5196 15 18.2652 15 18V16H16C16.2652 16 16.5196 15.8946 16.7071 15.7071C16.8946 15.5196 17 15.2652 17 15C17 14.7348 16.8946 14.4804 16.7071 14.2929C16.5196 14.1054 16.2652 14 16 14H15V6Z" fill="#FF7A2E"/>
</svg>
