<svg width="24" height="24" viewBox="0 0 24 24" fill="none" xmlns="http://www.w3.org/2000/svg">
<path fill-rule="evenodd" clip-rule="evenodd" d="M24 0H0V24H24V0ZM16 5C16.2652 5 16.5196 5.10536 16.7071 5.29289C16.8946 5.48043 17 5.73478 17 6C17 6.26522 16.8946 6.51957 16.7071 6.70711C16.5196 6.89464 16.2652 7 16 7H9.82L9.348 9.36C10.0925 9.152 10.993 9 12 9C14.7615 9 17 11.2385 17 14C17 16.7615 14.7615 19 12 19H10.891C9.133 19 7.6225 17.899 7.0595 16.34C7.01485 16.2165 6.99497 16.0854 7.00098 15.9542C7.00699 15.823 7.03879 15.6943 7.09455 15.5754C7.15031 15.4565 7.22895 15.3497 7.32597 15.2612C7.42299 15.1727 7.53649 15.1041 7.66 15.0595C7.90944 14.9693 8.18448 14.9819 8.42462 15.0946C8.54352 15.1503 8.65028 15.2289 8.7388 15.326C8.82731 15.423 8.89585 15.5365 8.9405 15.66C9.219 16.4315 9.9795 17 10.8905 17H12C12.7956 17 13.5587 16.6839 14.1213 16.1213C14.6839 15.5587 15 14.7956 15 14C15 13.2044 14.6839 12.4413 14.1213 11.8787C13.5587 11.3161 12.7956 11 12 11C10.1975 11 8.8905 11.608 8.555 11.832C8.39045 11.9418 8.19704 12.0003 7.99924 12.0001C7.80144 11.9999 7.60813 11.9411 7.44376 11.8311C7.2794 11.721 7.15136 11.5647 7.07584 11.3819C7.00032 11.1991 6.98071 10.998 7.0195 10.804L8.0195 5.804C8.06481 5.57731 8.18727 5.37331 8.36603 5.22673C8.54479 5.08014 8.76882 5.00002 9 5H16Z" fill="#FF7A2E"/>
</svg>
