<svg width="12" height="12" viewBox="0 0 12 12" fill="none" xmlns="http://www.w3.org/2000/svg">
<path fill-rule="evenodd" clip-rule="evenodd" d="M6.5 1.5C6.5 1.36739 6.44732 1.24021 6.35355 1.14645C6.25979 1.05268 6.13261 1 6 1C5.86739 1 5.74021 1.05268 5.64645 1.14645C5.55268 1.24021 5.5 1.36739 5.5 1.5V2C5.5 2.13261 5.55268 2.25979 5.64645 2.35355C5.74021 2.44732 5.86739 2.5 6 2.5C6.13261 2.5 6.25979 2.44732 6.35355 2.35355C6.44732 2.25979 6.5 2.13261 6.5 2V1.5ZM3.1035 2.3965C3.0092 2.30542 2.8829 2.25502 2.7518 2.25616C2.6207 2.2573 2.49529 2.30989 2.40259 2.40259C2.30989 2.49529 2.2573 2.6207 2.25616 2.7518C2.25502 2.8829 2.30542 3.0092 2.3965 3.1035L2.8965 3.6035C2.9908 3.69458 3.1171 3.74498 3.2482 3.74384C3.3793 3.7427 3.50471 3.69011 3.59741 3.59741C3.69011 3.50471 3.7427 3.3793 3.74384 3.2482C3.74498 3.1171 3.69458 2.9908 3.6035 2.8965L3.1035 2.3965ZM9.6035 3.1035C9.69458 3.0092 9.74498 2.8829 9.74384 2.7518C9.7427 2.6207 9.69011 2.49529 9.59741 2.40259C9.50471 2.30989 9.3793 2.2573 9.2482 2.25616C9.1171 2.25502 8.9908 2.30542 8.8965 2.3965L8.3965 2.8965C8.30542 2.9908 8.25502 3.1171 8.25616 3.2482C8.2573 3.3793 8.30989 3.50471 8.40259 3.59741C8.49529 3.69011 8.6207 3.7427 8.7518 3.74384C8.8829 3.74498 9.0092 3.69458 9.1035 3.6035L9.6035 3.1035ZM6 3C5.35552 2.99996 4.72815 3.20747 4.2108 3.5918C3.69345 3.97613 3.31362 4.51684 3.12756 5.13388C2.94149 5.75093 2.95908 6.41148 3.17772 7.01775C3.39636 7.62401 3.80443 8.14375 4.3415 8.5H7.6585C8.19557 8.14375 8.60364 7.62401 8.82228 7.01775C9.04092 6.41148 9.05851 5.75093 8.87244 5.13388C8.68638 4.51684 8.30655 3.97613 7.7892 3.5918C7.27185 3.20747 6.64448 2.99996 6 3ZM7.5 9H4.5V9.5C4.5 9.89782 4.65804 10.2794 4.93934 10.5607C5.22064 10.842 5.60218 11 6 11C6.39782 11 6.77936 10.842 7.06066 10.5607C7.34196 10.2794 7.5 9.89782 7.5 9.5V9ZM1.5 5.5C1.36739 5.5 1.24021 5.55268 1.14645 5.64645C1.05268 5.74021 1 5.86739 1 6C1 6.13261 1.05268 6.25979 1.14645 6.35355C1.24021 6.44732 1.36739 6.5 1.5 6.5H2C2.13261 6.5 2.25979 6.44732 2.35355 6.35355C2.44732 6.25979 2.5 6.13261 2.5 6C2.5 5.86739 2.44732 5.74021 2.35355 5.64645C2.25979 5.55268 2.13261 5.5 2 5.5H1.5ZM10 5.5C9.86739 5.5 9.74021 5.55268 9.64645 5.64645C9.55268 5.74021 9.5 5.86739 9.5 6C9.5 6.13261 9.55268 6.25979 9.64645 6.35355C9.74021 6.44732 9.86739 6.5 10 6.5H10.5C10.6326 6.5 10.7598 6.44732 10.8536 6.35355C10.9473 6.25979 11 6.13261 11 6C11 5.86739 10.9473 5.74021 10.8536 5.64645C10.7598 5.55268 10.6326 5.5 10.5 5.5H10Z" fill="#FF7A2E"/>
</svg>
