<svg width="12" height="12" viewBox="0 0 12 12" fill="none" xmlns="http://www.w3.org/2000/svg">
<path fill-rule="evenodd" clip-rule="evenodd" d="M2.54 4.64919H2.5C2.23478 4.64919 1.98043 4.75455 1.79289 4.94208C1.60536 5.12962 1.5 5.38397 1.5 5.64919V6.64919C1.5 6.91441 1.60536 7.16876 1.79289 7.3563C1.98043 7.54383 2.23478 7.64919 2.5 7.64919H2.54C2.68428 7.64913 2.82686 7.68029 2.95796 7.74053C3.08906 7.80077 3.20557 7.88867 3.2995 7.99819L5.1205 10.1232C5.4225 10.4752 6 10.2617 6 9.79769V2.50069C6 2.03669 5.4225 1.82319 5.12 2.17569L3.3 4.29969C3.20607 4.40936 3.08949 4.49739 2.9583 4.55772C2.82711 4.61806 2.6844 4.64926 2.54 4.64919ZM9.318 2.28669C9.27068 2.24005 9.21454 2.20332 9.15285 2.17862C9.09117 2.15393 9.02519 2.14178 8.95876 2.14288C8.89233 2.14398 8.82678 2.15831 8.76595 2.18503C8.70512 2.21175 8.65023 2.25033 8.60448 2.29851C8.55872 2.34668 8.52303 2.4035 8.49949 2.46562C8.47594 2.52775 8.46502 2.59395 8.46735 2.66035C8.46968 2.72675 8.48521 2.79202 8.51306 2.85234C8.5409 2.91267 8.58048 2.96684 8.6295 3.01169C10.457 4.74769 10.457 7.55069 8.6295 9.28669C8.58048 9.33154 8.5409 9.38571 8.51306 9.44604C8.48521 9.50636 8.46968 9.57163 8.46735 9.63803C8.46502 9.70443 8.47594 9.77063 8.49949 9.83276C8.52303 9.89488 8.55872 9.95169 8.60448 9.99987C8.65023 10.048 8.70512 10.0866 8.76595 10.1133C8.82678 10.1401 8.89233 10.1544 8.95876 10.1555C9.02519 10.1566 9.09117 10.1444 9.15285 10.1198C9.21454 10.0951 9.27068 10.0583 9.318 10.0117C11.5605 7.88169 11.5605 4.41669 9.318 2.28669ZM7.8445 3.68669C7.74836 3.59532 7.61986 3.54589 7.48727 3.54926C7.35468 3.55264 7.22887 3.60855 7.1375 3.70469C7.04613 3.80083 6.9967 3.92933 7.00008 4.06192C7.00345 4.1945 7.05936 4.32032 7.1555 4.41169C8.169 5.37419 8.169 6.92419 7.1555 7.88669C7.1079 7.93193 7.06967 7.9861 7.043 8.04612C7.01633 8.10613 7.00175 8.17081 7.00008 8.23646C6.9984 8.30211 7.00968 8.36745 7.03326 8.42874C7.05684 8.49004 7.09226 8.54608 7.1375 8.59369C7.22887 8.68983 7.35468 8.74574 7.48727 8.74911C7.55292 8.75078 7.61826 8.73951 7.67955 8.71593C7.74085 8.69235 7.7969 8.65693 7.8445 8.61169C9.273 7.25469 9.273 5.04369 7.8445 3.68669Z" fill="#FF7A2E"/>
</svg>
